<svg xmlns="http://www.w3.org/2000/svg" viewBox="0 0 24 24"><path d="M17 16.5c-.4 1.5-1.2 2.7-2.4 3.5-1 .7-2.1 1-3.2.8-1-.2-1.7-.7-2.3-1.5-.4-.6-.7-1.3-.8-2L7 19.5c.3 1.5 1 2.8 2.1 3.7 1.2 1 2.7 1.4 4.3 1.2 1.8-.2 3.4-1 4.6-2.4 1-1.2 1.6-2.7 1.7-4.3l-2.7-1.2zM21.5 13c-.3-1.5-1-2.8-2.1-3.7l-2.2 1.5c.7.7 1.2 1.5 1.4 2.5l2.9-.3zM4.7 9.4c.3-.6.7-1.1 1.2-1.5l-1.6-2C3.1 6.9 2.3 8 1.8 9.3l2.9.1zM12 2C6.5 2 2 6.5 2 12c0 .8.1 1.5.3 2.2l2.8-.5c-.1-.6-.1-1.1-.1-1.7 0-3.9 3.1-7 7-7s7 3.1 7 7c0 1.7-.6 3.3-1.7 4.5l1.9 1.7C20.7 16.4 22 14.3 22 12c0-5.5-4.5-10-10-10z" fill="#007ACC"/></svg>